<?xml version="1.0" encoding="UTF-8"?>
<svg width="9px" height="13px" viewBox="0 0 9 13" version="1.1" xmlns="http://www.w3.org/2000/svg" xmlns:xlink="http://www.w3.org/1999/xlink">
    <title>arrow-down</title>
    <g id="Page-1" stroke="none" stroke-width="1" fill="none" fill-rule="evenodd">
        <g id="Medium-Copy-3" transform="translate(-319.000000, -362.000000)" fill="#000000" fill-rule="nonzero" stroke="#000000">
            <g id="Group-4" transform="translate(57.000000, 287.000000)">
                <g id="arrow-down" transform="translate(266.500000, 81.142857) rotate(-90.000000) translate(-266.500000, -81.142857) translate(261.000000, 78.000000)">
                    <path d="M0.665243826,6.34629466e-15 C0.495197146,6.34629466e-15 0.322647593,0.0674357233 0.193662898,0.198936542 C-0.0645542993,0.462186607 -0.0645542993,0.897483981 0.193662898,1.16073405 L5.0255295,6.08677773 C5.15024154,6.21392053 5.32618401,6.28571428 5.49711042,6.28571428 C5.66643019,6.28571428 5.83518413,6.2228829 5.96869135,6.08677773 L10.7939497,1.16705003 C11.0642682,0.90767376 11.0677376,0.462102394 10.8095185,0.198852329 C10.5512995,-0.0643977367 10.1243261,-0.0643977367 9.86610884,0.198852329 L5.50574447,4.65304624 L1.13666157,0.198806285 C1.05050933,0.110974858 0.893370075,0.0447060957 0.665243826,6.34629466e-15 Z" id="Path"></path>
                </g>
            </g>
        </g>
    </g>
</svg>