<?xml version="1.0" encoding="UTF-8"?>
<svg width="46px" height="41px" viewBox="0 0 46 41" version="1.1" xmlns="http://www.w3.org/2000/svg" xmlns:xlink="http://www.w3.org/1999/xlink">
    <title>noun-books-75798</title>
    <g id="Page-1" stroke="none" stroke-width="1" fill="none" fill-rule="evenodd">
        <g id="Desktop-HD-Copy-3" transform="translate(-100.000000, -1890.000000)" fill="#00ACA7" fill-rule="nonzero">
            <g id="Group-2" transform="translate(80.000000, 1869.000000)">
                <g id="Group" transform="translate(20.000000, 21.000000)">
                    <path d="M0,41 L11.04,41 L11.04,1.82222222 L0,1.82222222 L0,41 Z M1.84,6.24551971 L9.2,6.24551971 L9.2,7.509319 L1.84,7.509319 L1.84,6.24551971 Z M1.84,10.0369176 L9.2,10.0369176 L9.2,11.3007168 L1.84,11.3007168 L1.84,10.0369176 Z M1.84,13.8283154 L9.2,13.8283154 L9.2,15.0921147 L1.84,15.0921147 L1.84,13.8283154 Z" id="Shape"></path>
                    <path d="M13.8,41 L23.92,41 L23.92,1.82222222 L13.8,1.82222222 L13.8,41 Z M15.065,6.24551971 L22.655,6.24551971 L22.655,7.509319 L15.065,7.509319 L15.065,6.24551971 Z M15.065,10.0369176 L22.655,10.0369176 L22.655,11.3007168 L15.065,11.3007168 L15.065,10.0369176 Z M15.065,13.8283154 L22.655,13.8283154 L22.655,15.0921147 L15.065,15.0921147 L15.065,13.8283154 Z" id="Shape"></path>
                    <path d="M36.7179618,0 L25.76,2.53477589 L35.0420382,41 L46,38.4652241 L36.7179618,0 Z M28.1449682,6.8438949 L36.524586,4.87944359 L36.7824204,6.02009274 L28.4028025,7.98454405 L28.1449682,6.8438949 Z M29.0473885,10.5193199 L37.4270064,8.55486862 L37.6848408,9.69551777 L29.3052229,11.6599691 L29.0473885,10.5193199 Z M30.2076433,15.3987635 L29.9498089,14.2581144 L38.3294268,12.2936631 L38.5872611,13.4343122 L30.2076433,15.3987635 Z" id="Shape"></path>
                </g>
            </g>
        </g>
    </g>
</svg>