<?xml version="1.0" encoding="UTF-8"?>
<svg width="71px" height="71px" viewBox="0 0 71 71" version="1.1" xmlns="http://www.w3.org/2000/svg" xmlns:xlink="http://www.w3.org/1999/xlink">
    <title>Group 2</title>
    <g id="Page-1" stroke="none" stroke-width="1" fill="none" fill-rule="evenodd">
        <g id="Medium-Copy" transform="translate(-113.000000, -2187.000000)">
            <g id="Group-2" transform="translate(113.000000, 2187.000000)">
                <circle id="Oval" fill="#FFFFFF" cx="35.5" cy="35.5" r="35.5"></circle>
                <g id="noun-books-75798" transform="translate(17.000000, 19.000000)" fill="#00ACA7" fill-rule="nonzero">
                    <g id="Group">
                        <path d="M0,33 L8.88,33 L8.88,1.46666667 L0,1.46666667 L0,33 Z M1.48,5.02688172 L7.4,5.02688172 L7.4,6.04408602 L1.48,6.04408602 L1.48,5.02688172 Z M1.48,8.07849462 L7.4,8.07849462 L7.4,9.09569892 L1.48,9.09569892 L1.48,8.07849462 Z M1.48,11.1301075 L7.4,11.1301075 L7.4,12.1473118 L1.48,12.1473118 L1.48,11.1301075 Z" id="Shape"></path>
                        <path d="M11.1,33 L19.24,33 L19.24,1.46666667 L11.1,1.46666667 L11.1,33 Z M12.1175,5.02688172 L18.2225,5.02688172 L18.2225,6.04408602 L12.1175,6.04408602 L12.1175,5.02688172 Z M12.1175,8.07849462 L18.2225,8.07849462 L18.2225,9.09569892 L12.1175,9.09569892 L12.1175,8.07849462 Z M12.1175,11.1301075 L18.2225,11.1301075 L18.2225,12.1473118 L12.1175,12.1473118 L12.1175,11.1301075 Z" id="Shape"></path>
                        <path d="M29.5340127,0 L20.72,2.04018547 L28.1859873,33 L37,30.9598145 L29.5340127,0 Z M22.6383439,5.50850077 L29.3784713,3.92735703 L29.5858599,4.84544049 L22.8457325,6.42658423 L22.6383439,5.50850077 Z M23.3642038,8.46676971 L30.1043312,6.88562597 L30.3117197,7.80370943 L23.5715924,9.38485317 L23.3642038,8.46676971 Z M24.2974522,12.3941267 L24.0900637,11.4760433 L30.8301911,9.89489954 L31.0375796,10.812983 L24.2974522,12.3941267 Z" id="Shape"></path>
                    </g>
                </g>
            </g>
        </g>
    </g>
</svg>