<?xml version="1.0" encoding="UTF-8"?>
<svg width="38px" height="34px" viewBox="0 0 38 34" version="1.1" xmlns="http://www.w3.org/2000/svg" xmlns:xlink="http://www.w3.org/1999/xlink">
    <title>noun-chat-7433652</title>
    <g id="Page-1" stroke="none" stroke-width="1" fill="none" fill-rule="evenodd">
        <g id="Desktop-HD-Copy-3" transform="translate(-93.000000, -1490.000000)" fill="#0B2148" fill-rule="nonzero">
            <g id="noun-chat-7433652" transform="translate(93.000000, 1490.000000)">
                <path d="M35.1411151,21.0679167 C37.0127597,18.7912571 37.9978928,16.0792167 37.9978928,13.210326 C37.9978928,5.9305329 31.4821267,0 23.4820863,0 C19.1899396,0 15.1582615,1.70571334 12.3928098,4.68906737 C5.39879759,5.62400328 0.00164112822,11.1266005 0.00164112822,17.7564284 C0.00164112822,20.6254105 0.986729134,23.3375422 2.85841886,25.6213272 L0.0790521583,32.9509068 C-0.0405634194,33.1792853 -0.0264952369,33.4790093 0.135342901,33.7073878 C0.212744925,33.8073034 0.311249222,33.8858062 0.416796617,33.9286317 C0.430869303,33.9429054 0.437905646,33.9429054 0.451978332,33.9500422 C0.473087361,33.957179 0.487160046,33.9643159 0.508269075,33.9643159 C0.57159391,33.9928632 0.634923247,34 0.705286676,34 C0.775650105,34 0.838979443,33.9857263 0.909338369,33.9643159 C0.93748374,33.9643159 0.965629112,33.9500422 0.993774484,33.9357685 C1.03599254,33.9143581 1.0782106,33.8858085 1.12042866,33.8572612 L1.18375349,33.8073011 L7.34781503,29.2468565 C9.52203373,30.3744982 11.9915762,30.9668206 14.5179047,30.9668206 C18.9578484,30.9668206 22.933596,29.146918 25.593221,26.2850614 C27.3874997,26.0495483 29.0902722,25.5214093 30.6521827,24.7006627 L36.8162443,29.2682327 L36.8795691,29.3181928 C37.0062233,29.4109693 37.1469501,29.4537948 37.2947156,29.4537948 C37.3861858,29.4537948 37.4706219,29.4395211 37.555058,29.4038347 C37.5902397,29.3895611 37.6183828,29.3752874 37.6465282,29.3538746 C37.7309643,29.3110537 37.8013278,29.2468199 37.8646571,29.161178 C38.0264952,28.9327995 38.0405634,28.640201 37.9209478,28.404697 L35.1411151,21.0679167 Z M11.0833333,17.7872633 C11.0833333,18.4435165 10.5494522,18.9767442 9.89927193,18.9767442 C9.24909165,18.9767442 8.70833333,18.4435165 8.70833333,17.7872633 C8.70833333,17.13101 9.24221445,16.6046512 9.89927193,16.6046512 C10.5563294,16.6046512 11.0833333,17.13101 11.0833333,17.7872633 Z M13.4583333,17.7906977 C13.4583333,17.1365174 13.9908906,16.6046512 14.6458333,16.6046512 C15.3007761,16.6046512 15.8333333,17.1365566 15.8333333,17.7906977 C15.8333333,18.4448388 15.3007761,18.9767442 14.6458333,18.9767442 C13.9908906,18.9767442 13.4583333,18.4448388 13.4583333,17.7906977 Z M18.2083333,17.7906977 C18.2083333,17.1365174 18.7408906,16.6046512 19.3958333,16.6046512 C20.0507761,16.6046512 20.5833333,17.1365566 20.5833333,17.7906977 C20.5833333,18.4448388 20.0507761,18.9767442 19.3958333,18.9767442 C18.7408906,18.9767442 18.2083333,18.4448388 18.2083333,17.7906977 Z M31.0042874,23.5087975 L30.9120761,23.4374427 C30.8482382,23.3874921 30.7773001,23.3589503 30.7063712,23.3304084 C30.6850911,23.3232729 30.6638111,23.3161374 30.6354377,23.3090019 C30.5857819,23.3018665 30.5432264,23.294731 30.4935706,23.294731 C30.4155415,23.294731 30.3446125,23.3090019 30.2736745,23.3375438 C30.2523944,23.3446793 30.2311144,23.3446793 30.2098366,23.3589503 C30.1885565,23.3589503 30.1743698,23.3732212 30.1530898,23.3874921 C29.0749003,23.9868719 27.9186727,24.4364181 26.6986162,24.721837 C28.0392483,22.7310286 28.8053303,20.3977175 28.8053303,17.9074032 C28.8053303,10.6504559 22.2867105,4.74251264 14.25,4.69958563 C16.6759489,2.70165319 19.8465976,1.58139535 23.2019231,1.58139535 C30.4868518,1.58139535 36.4166667,6.86872375 36.4166667,13.3621183 C36.4166667,16.0236384 35.4448889,18.5211224 33.6219089,20.5976021 C33.6006288,20.626144 33.5722531,20.6546859 33.558071,20.6832278 C33.5367909,20.7117697 33.5226042,20.7403116 33.5084153,20.7759867 C33.4800418,20.8330705 33.4587595,20.8901542 33.4516684,20.9543712 C33.4445751,20.997184 33.4374817,21.0399969 33.4374817,21.0828097 C33.4374817,21.1256226 33.4374817,21.1684354 33.4516684,21.2112482 C33.4516684,21.2397901 33.4587618,21.268332 33.4729485,21.2968739 C33.4729485,21.3111449 33.4729485,21.3254158 33.4800418,21.3396868 L33.4942286,21.3753641 L35.6009426,26.8837209 L31.0042874,23.5087975 Z" id="Shape"></path>
            </g>
        </g>
    </g>
</svg>