<?xml version="1.0" encoding="UTF-8"?>
<svg width="48px" height="43px" viewBox="0 0 48 43" version="1.1" xmlns="http://www.w3.org/2000/svg" xmlns:xlink="http://www.w3.org/1999/xlink">
    <title>noun-chat-7433652</title>
    <g id="Page-1" stroke="none" stroke-width="1" fill="none" fill-rule="evenodd">
        <g id="Desktop-HD-Copy-3" transform="translate(-237.000000, -506.000000)" fill="#FFFFFF" fill-rule="nonzero">
            <g id="noun-chat-7433652" transform="translate(237.000000, 506.000000)">
                <path d="M44.3887769,26.6447181 C46.7529597,23.7654134 47.9973383,20.33548 47.9973383,16.707177 C47.9973383,7.50037985 39.7668969,0 29.6615826,0 C24.2399237,0 19.1472777,2.1572257 15.6540756,5.93029109 C6.81953379,7.11271003 0.00207300407,14.0718772 0.00207300407,22.4566595 C0.00207300407,26.085078 1.2463947,29.5151269 3.61063435,32.4034432 L0.0998553578,41.6732057 C-0.0512380034,41.9620373 -0.0334676676,42.3410999 0.170959454,42.6299316 C0.268730432,42.7562954 0.393156912,42.8555784 0.526479938,42.9097401 C0.544255962,42.9277921 0.553143974,42.9277921 0.570919998,42.9368181 C0.597584034,42.9458441 0.615360059,42.9548701 0.642024095,42.9548701 C0.722013359,42.990974 0.802008312,43 0.890888433,43 C0.979768554,43 1.05976351,42.981948 1.14863794,42.9548701 C1.18418999,42.9548701 1.21974204,42.9368181 1.25529408,42.9187661 C1.30862216,42.8916881 1.36195023,42.8555813 1.4152783,42.8194773 L1.49526757,42.7562925 L9.28145057,36.9886714 C12.0278321,38.4148065 15.1472541,39.1639202 18.338406,39.1639202 C23.9467558,39.1639202 28.9687529,36.8622787 32.3282792,33.2428717 C34.5947365,32.945017 36.745607,32.2770765 38.7185466,31.2390734 L46.5047296,37.0157061 L46.5847189,37.0788909 C46.7447031,37.1962258 46.9224633,37.2503875 47.1091144,37.2503875 C47.2246557,37.2503875 47.3313119,37.2323356 47.437968,37.1872027 C47.4824081,37.1691508 47.5179573,37.1510988 47.5535093,37.1240179 C47.6601655,37.069862 47.7490456,36.9886252 47.8290405,36.8803133 C48.0334677,36.5914817 48.051238,36.2214306 47.9001446,35.9235874 L44.3887769,26.6447181 Z M14,22.4956565 C14,23.3256239 13.3256239,24 12.5043435,24 C11.6830631,24 11,23.3256239 11,22.4956565 C11,21.6656891 11.6743761,21 12.5043435,21 C13.3343109,21 14,21.6656891 14,22.4956565 Z M17,22.5 C17,21.6726544 17.6727039,21 18.5,21 C19.3272961,21 20,21.6727039 20,22.5 C20,23.3272961 19.3272961,24 18.5,24 C17.6727039,24 17,23.3272961 17,22.5 Z M23,22.5 C23,21.6726544 23.6727039,21 24.5,21 C25.3272961,21 26,21.6727039 26,22.5 C26,23.3272961 25.3272961,24 24.5,24 C23.6727039,24 23,23.3272961 23,22.5 Z M39.1633104,29.7317145 L39.046833,29.6414717 C38.9661956,29.5782989 38.8765897,29.5422018 38.7869952,29.5061047 C38.7601151,29.4970804 38.733235,29.4880561 38.6973949,29.4790319 C38.6346719,29.4700076 38.5809175,29.4609833 38.5181945,29.4609833 C38.4196314,29.4609833 38.3300369,29.4790319 38.2404309,29.515129 C38.2135508,29.5241532 38.1866708,29.5241532 38.1597936,29.5422018 C38.1329135,29.5422018 38.1149934,29.5602503 38.0881134,29.5782989 C36.7261899,30.336338 35.2656918,30.9048817 33.7245679,31.2658527 C35.4179979,28.7480656 36.3856803,25.7971134 36.3856803,22.6475982 C36.3856803,13.4696943 28.1516343,5.99788363 18,5.94359359 C21.0643565,3.41679668 25.0693864,2 29.3076923,2 C38.5097075,2 46,8.68691533 46,16.8991497 C46,20.2651897 44.7724912,23.4237724 42.4697796,26.0499086 C42.4428996,26.0860057 42.4070566,26.1221028 42.3891423,26.1581999 C42.3622622,26.194297 42.3443422,26.2303941 42.3264193,26.2755125 C42.2905792,26.3477067 42.2636962,26.4199009 42.2547391,26.5011165 C42.2457791,26.5552622 42.236819,26.6094078 42.236819,26.6635535 C42.236819,26.7176991 42.236819,26.7718448 42.2547391,26.8259904 C42.2547391,26.8620875 42.2636991,26.8981846 42.2816192,26.9342817 C42.2816192,26.9523303 42.2816192,26.9703788 42.2905792,26.9884274 L42.3084992,27.0335487 L44.9696117,34 L39.1633104,29.7317145 Z" id="Shape"></path>
            </g>
        </g>
    </g>
</svg>