<?xml version="1.0" encoding="UTF-8"?>
<svg width="21px" height="21px" viewBox="0 0 21 21" version="1.1" xmlns="http://www.w3.org/2000/svg" xmlns:xlink="http://www.w3.org/1999/xlink">
    <title>noun-check-3496109</title>
    <g id="Page-1" stroke="none" stroke-width="1" fill="none" fill-rule="evenodd">
        <g id="Artboard" transform="translate(-1080.000000, -523.000000)" fill-rule="nonzero">
            <g id="noun-check-3496109" transform="translate(1080.000000, 523.000000)">
                <path d="M10.5,21 C16.2989899,21 21,16.2989899 21,10.5 C21,4.70101013 16.2989899,0 10.5,0 C4.70101013,0 0,4.70101013 0,10.5 C0,16.2989899 4.70101013,21 10.5,21 Z" id="Shape" fill="#CE9CA0"></path>
                <path d="M5.04954545,10.7768182 C5.42185393,10.4067184 6.02314607,10.4067184 6.39545455,10.7768182 L8.59090909,12.9722727 L14.1177273,7.44545455 C14.496453,7.12112215 15.0610035,7.14292829 15.4135831,7.49550783 C15.7661626,7.84808738 15.7879688,8.41263792 15.4636364,8.79136364 L9.25909091,14.9959091 C8.88678243,15.3660089 8.2854903,15.3660089 7.91318182,14.9959091 L5.04954545,12.1322727 C4.86883792,11.953041 4.76719251,11.7090631 4.76719251,11.4545455 C4.76719251,11.2000278 4.86883792,10.9560499 5.04954545,10.7768182 Z" id="Path" fill="#8B131C"></path>
            </g>
        </g>
    </g>
</svg>