<?xml version="1.0" encoding="UTF-8"?>
<svg width="20px" height="19px" viewBox="0 0 20 19" version="1.1" xmlns="http://www.w3.org/2000/svg" xmlns:xlink="http://www.w3.org/1999/xlink">
    <title>Shape Copy 4</title>
    <g id="Page-1" stroke="none" stroke-width="1" fill="none" fill-rule="evenodd">
        <g id="Desktop-HD-Copy-11" transform="translate(-1345.000000, -5051.000000)" fill="#751816" fill-rule="nonzero">
            <g id="Group-32" transform="translate(1284.000000, 5006.000000)">
                <g id="Group-17" transform="translate(0.000000, 44.000000)">
                    <path d="M71.0009384,1 C68.2850768,1 67.9442399,1.01128125 66.8775621,1.05739585 C65.8129677,1.10370834 65.0862934,1.26382294 64.4504535,1.49875003 C63.7927383,1.74139585 63.2348158,2.06597915 62.6789767,2.59421877 C62.1227209,3.12226044 61.7810507,3.65228123 61.524798,4.27690626 C61.2768788,4.88114586 61.108127,5.57167711 61.0602098,6.58263544 C61.012501,7.59596875 61.0000009,7.91995836 61.0000009,10.5 C61.0000009,13.0800417 61.0120843,13.4028438 61.0604182,14.4161771 C61.109377,15.4275313 61.2779204,16.1178646 61.5250064,16.7219063 C61.780634,17.3467292 62.1223043,17.87675 62.6783517,18.4047917 C63.2339825,18.9332292 63.7919049,19.2586042 64.4492035,19.50125 C65.0854601,19.7361771 65.8123427,19.8962917 66.8767288,19.9426042 C67.9434066,19.9887187 68.2840351,20 70.9996884,20 C73.7157583,20 74.0555536,19.9887187 75.1222313,19.9426042 C76.1868258,19.8962917 76.9143333,19.7361771 77.5505899,19.50125 C78.2080968,19.2586042 78.7651859,18.9332292 79.3208167,18.4047917 C79.8770725,17.87675 80.2187428,17.3467292 80.4749954,16.7221042 C80.7208313,16.1178646 80.8895831,15.4273334 80.9395836,14.416375 C80.9875008,13.4030417 81.0000009,13.0800417 81.0000009,10.5 C81.0000009,7.91995836 80.9875008,7.5961667 80.9395836,6.58283333 C80.8895831,5.57147915 80.7208313,4.88114586 80.4749954,4.27710415 C80.2187428,3.65228123 79.8770725,3.12226044 79.3208167,2.59421877 C78.7645609,2.06578125 78.2083051,1.7411979 77.5499649,1.49875003 C76.9124583,1.26382294 76.1853674,1.10370834 75.1207729,1.05739585 C74.0540952,1.01128125 73.7145083,1 70.9978134,1 L71.0009384,1 Z M70.1038457,2.71197919 C70.3700985,2.71158334 70.6671849,2.71197919 71.0009384,2.71197919 C73.6709662,2.71197919 73.9874278,2.72108336 75.0418138,2.76660415 C76.0168239,2.80895833 76.5459961,2.96372918 76.8984998,3.09376044 C77.3651714,3.26594793 77.6978831,3.47178127 78.0476784,3.80428125 C78.3976821,4.13678123 78.614351,4.45344791 78.7960196,4.89678128 C78.932896,5.23126044 79.0960227,5.73396878 79.1403982,6.66021875 C79.1883153,7.66167707 79.1987321,7.96251043 79.1987321,10.4978229 C79.1987321,13.0331354 79.1883153,13.3339688 79.1403982,14.3354271 C79.0958144,15.2616771 78.932896,15.7643855 78.7960196,16.0988646 C78.6147677,16.5421979 78.3976821,16.857875 78.0476784,17.1901771 C77.6976748,17.5226771 77.3653797,17.7285104 76.8984998,17.9006979 C76.5464128,18.0313229 76.0168239,18.1856979 75.0418138,18.2280521 C73.9876362,18.2735729 73.6709662,18.2834688 71.0009384,18.2834688 C68.3307023,18.2834688 68.0142406,18.2735729 66.9600629,18.2280521 C65.9850528,18.1853021 65.4558806,18.0305313 65.1031686,17.9005 C64.6364971,17.7283125 64.3031603,17.5224792 63.9531566,17.1899792 C63.603153,16.8574792 63.3864841,16.5416042 63.2048155,16.0980729 C63.0679391,15.7635938 62.9048124,15.2608854 62.8604369,14.3346354 C62.8125198,13.3331771 62.8029363,13.0323438 62.8029363,10.4954479 C62.8029363,7.95855206 62.8125198,7.65930209 62.8604369,6.65784378 C62.9050208,5.73159375 63.0679391,5.22888541 63.2048155,4.89401045 C63.3860674,4.45067708 63.603153,4.13401041 63.9531566,3.80151043 C64.3031603,3.46901039 64.6364971,3.2631771 65.1031686,3.09059377 C65.4556723,2.95996876 65.9850528,2.80559377 66.9600629,2.76304169 C67.8825726,2.72345833 68.2400763,2.71158334 70.1038457,2.70960415 L70.1038457,2.71197919 Z M76.3389106,4.289375 C75.6764038,4.289375 75.1388981,4.79940628 75.1388981,5.42897915 C75.1388981,6.05835419 75.6764038,6.56897915 76.3389106,6.56897915 C77.0014176,6.56897915 77.5389231,6.05835419 77.5389231,5.42897915 C77.5389231,4.79960417 77.0014176,4.28897915 76.3389106,4.28897915 L76.3389106,4.289375 Z M71.0009384,5.62135417 C68.1648672,5.62135417 65.8654683,7.8057604 65.8654683,10.5 C65.8654683,13.1942396 68.1648672,15.3776562 71.0009384,15.3776562 C73.8370096,15.3776562 76.1355752,13.1942396 76.1355752,10.5 C76.1355752,7.8057604 73.8368013,5.62135417 71.0007301,5.62135417 L71.0009384,5.62135417 Z M71.0009384,7.33333335 C72.8417909,7.33333335 74.3343064,8.75101042 74.3343064,10.5 C74.3343064,12.2487917 72.8417909,13.6666667 71.0009384,13.6666667 C69.1598776,13.6666667 67.6675703,12.2487917 67.6675703,10.5 C67.6675703,8.75101042 69.1598776,7.33333335 71.0009384,7.33333335 L71.0009384,7.33333335 Z" id="Shape-Copy-4"></path>
                </g>
            </g>
        </g>
    </g>
</svg>