<?xml version="1.0" encoding="UTF-8"?>
<svg width="39px" height="39px" viewBox="0 0 39 39" version="1.1" xmlns="http://www.w3.org/2000/svg" xmlns:xlink="http://www.w3.org/1999/xlink">
    <title>Group 5</title>
    <g id="Page-1" stroke="none" stroke-width="1" fill="none" fill-rule="evenodd">
        <g id="Desktop-HD-Copy-3" transform="translate(-1394.000000, -55.000000)">
            <g id="Group-5" transform="translate(1394.000000, 55.000000)">
                <circle id="Oval" fill="#00467D" cx="19.5" cy="19.5" r="19.5"></circle>
                <g id="ig-icon--brown.917f2cc8acfb0089734d8234ea4d04d6-copy" transform="translate(11.000000, 10.000000)" fill="#FFFFFF" fill-rule="nonzero">
                    <path d="M3.10609756,0.472047164 C2.51341464,0.702581824 2.01219513,1.00996137 1.51097561,1.51128277 C1.0097561,2.0089449 0.702439025,2.51392559 0.47195122,3.10306972 C0.248780488,3.67391745 0.0987804879,4.32892863 0.0548780488,5.28766008 C0.0109756098,6.24639152 0,6.55377107 0,8.99817034 C0,11.4425696 0.0109756098,11.7499491 0.0548780488,12.7086806 C0.0987804879,13.667412 0.252439024,14.3224233 0.47195122,14.8932709 C0.702439025,15.4860743 1.0097561,15.9873958 1.51097561,16.4887171 C2.01219513,16.9900386 2.51341464,17.2974181 3.10609756,17.5279527 C3.67682928,17.7511689 4.33170732,17.9011993 5.29024391,17.9451107 C6.24878049,17.9890221 6.55609757,18 9,18 C11.4439025,18 11.7512195,17.9890221 12.7097561,17.9451107 C13.6682927,17.9011993 14.3231708,17.7475097 14.8939025,17.5279527 C15.4865854,17.2974181 15.9878049,16.9900386 16.4890244,16.4887171 C16.9902439,15.9873958 17.297561,15.4860743 17.5280487,14.8932709 C17.7512196,14.3224233 17.9012195,13.667412 17.945122,12.7086806 C17.9890244,11.7499491 18,11.4425696 18,8.99817034 C18,6.55377107 17.9890244,6.24639152 17.945122,5.28766008 C17.9012195,4.32892863 17.7475609,3.67391745 17.5280487,3.10306972 C17.297561,2.51392559 16.9902439,2.0089449 16.492683,1.51128277 C15.9914635,1.00996137 15.490244,0.702581824 14.897561,0.472047164 C14.3268293,0.248831063 13.6719513,0.0988005691 12.7134146,0.054889205 C11.7548781,0.010977841 11.447561,0 9.00365855,0 C6.5597561,0 6.25243903,0.010977841 5.29390245,0.054889205 C4.33170732,0.0951412887 3.67682928,0.248831063 3.10609756,0.472047164 Z M12.6365854,1.67229111 C13.5146342,1.71254319 13.9902439,1.8589144 14.3085366,1.98332994 C14.7292683,2.14799755 15.0292683,2.34193941 15.3439025,2.65663752 C15.6585366,2.97133564 15.8524391,3.27139662 16.0170732,3.69221385 C16.1414635,4.01057124 16.2878049,4.48627768 16.3280488,5.36450497 C16.3719512,6.31225857 16.3792683,6.59768244 16.3792683,9.00182962 C16.3792683,11.4059768 16.3682926,11.6914007 16.3280488,12.6391543 C16.2878049,13.5173815 16.1414635,13.993088 16.0170732,14.3114454 C15.8524391,14.7322626 15.6585366,15.0323236 15.3439025,15.3470217 C15.0292683,15.6617198 14.7292683,15.8556617 14.3085366,16.0203294 C13.9902439,16.1447448 13.5146342,16.2911161 12.6365854,16.3313682 C11.6890244,16.3752794 11.4036586,16.3825981 9.00000001,16.3825981 C6.59634147,16.3825981 6.31097562,16.3716202 5.36341464,16.3313682 C4.48536586,16.2911161 4.00975611,16.1447448 3.69146341,16.0203294 C3.27073172,15.8556617 2.97073171,15.6617198 2.65609756,15.3470217 C2.34146341,15.0323236 2.14756098,14.7322626 1.98292683,14.3114454 C1.85853659,13.993088 1.71219512,13.5173815 1.67195122,12.6391543 C1.62804878,11.6914007 1.62073171,11.4059768 1.62073171,9.00182962 C1.62073171,6.59768244 1.63170732,6.31225857 1.67195122,5.36450497 C1.71219512,4.48627768 1.85853659,4.01057124 1.98292683,3.69221385 C2.14756098,3.27139662 2.34146341,2.97133564 2.65609756,2.65663752 C2.97073171,2.34193941 3.27073172,2.14799755 3.69146341,1.98332994 C4.00975611,1.8589144 4.48536586,1.71254319 5.36341464,1.67229111 C6.31097562,1.62837975 6.59634147,1.62106119 9.00000001,1.62106119 C11.4036586,1.62106119 11.6890244,1.62837975 12.6365854,1.67229111 Z" id="Shape"></path>
                    <path d="M4.23529412,8.99999996 C4.23529412,11.6332262 6.37054632,13.7647059 9.00000001,13.7647059 C11.6294537,13.7647059 13.7647059,11.6294536 13.7647059,8.99999996 C13.7647059,6.3705463 11.6332262,4.23529412 9.00000001,4.23529412 C6.36677379,4.23529412 4.23529412,6.36677376 4.23529412,8.99999996 Z M12.0934749,8.99999996 C12.0934749,10.7089562 10.7089563,12.0934749 9.00000001,12.0934749 C7.29104374,12.0934749 5.90652508,10.7089562 5.90652508,8.99999996 C5.90652508,7.29104371 7.29104374,5.90652506 9.00000001,5.90652506 C10.7089563,5.90652506 12.0934749,7.29104371 12.0934749,8.99999996 Z" id="Shape"></path>
                    <circle id="Oval" cx="14.0058823" cy="4.41764706" r="1.3"></circle>
                </g>
            </g>
        </g>
    </g>
</svg>