<?xml version="1.0" encoding="UTF-8"?>
<svg width="16px" height="21px" viewBox="0 0 16 21" version="1.1" xmlns="http://www.w3.org/2000/svg" xmlns:xlink="http://www.w3.org/1999/xlink">
    <title>noun-layers-4335370</title>
    <g id="Page-1" stroke="none" stroke-width="1" fill="none" fill-rule="evenodd">
        <g id="Artboard" transform="translate(-1080.000000, -348.000000)" fill="#8B131C" fill-rule="nonzero">
            <g id="noun-layers-4335370" transform="translate(1080.000000, 348.000000)">
                <path d="M15.6509091,4.87100213 L8.37818182,0.104682901 C8.15316285,-0.0348943003 7.87592806,-0.0348943003 7.65090909,0.104682901 L0.378181818,4.87100213 C0.151123371,5.00434153 0.00710950959,5.25725727 0,5.53516137 C0,5.81103537 0.135491307,6.06643851 0.356363636,6.20713425 L3.53454545,8.25430743 L4.93818182,9.16068944 L7.62909091,10.8953171 C7.85410987,11.0348943 8.13134467,11.0348943 8.35636364,10.8953171 L11.0472727,9.16068944 L12.4509091,8.25430743 L15.6290909,6.20713425 C15.855561,6.07039159 15.9969446,5.81424812 16,5.53516137 C15.9989458,5.26364804 15.866775,5.01218793 15.6509091,4.87100213 Z" id="Path"></path>
                <path d="M16,10.7548794 C16,11.0196617 15.8645087,11.2647962 15.6436364,11.3998351 L12.4654545,13.3647001 L11.0618182,14.2346403 L8.37090909,15.899526 C8.14589013,16.0334913 7.86865533,16.0334913 7.64363636,15.899526 L4.95272727,14.2346403 L3.53454545,13.3647001 L0.356363636,11.3998351 C0.135491307,11.2647962 0,11.0196617 0,10.7548794 C0.0010542343,10.4942825 0.133225003,10.2529325 0.349090909,10.1174232 L2.13090909,9 L6.88,11.939798 C7.5696836,12.3652009 8.4303164,12.3652009 9.12,11.939798 L13.8690909,9 L15.6509091,10.1174232 C15.866775,10.2529325 15.9989458,10.4942825 16,10.7548794 Z" id="Path"></path>
                <path d="M16,15.7548794 C16,16.0196617 15.8645087,16.2647962 15.6436364,16.3998351 L8.37090909,20.899526 C8.14589013,21.0334913 7.86865533,21.0334913 7.64363636,20.899526 L0.370909091,16.3998351 C0.144439003,16.2685903 0.00305540574,16.0227453 0,15.7548794 C0.0010542343,15.4942825 0.133225003,15.2529325 0.349090909,15.1174232 L2.13090909,14 L6.88,16.939798 C7.5696836,17.3652009 8.4303164,17.3652009 9.12,16.939798 L13.8690909,14 L15.6509091,15.1174232 C15.866775,15.2529325 15.9989458,15.4942825 16,15.7548794 Z" id="Path"></path>
            </g>
        </g>
    </g>
</svg>