<?xml version="1.0" encoding="UTF-8"?>
<svg width="39px" height="39px" viewBox="0 0 39 39" version="1.1" xmlns="http://www.w3.org/2000/svg" xmlns:xlink="http://www.w3.org/1999/xlink">
    <title>Group</title>
    <g id="Page-1" stroke="none" stroke-width="1" fill="none" fill-rule="evenodd">
        <g id="Artboard" transform="translate(-454.000000, -645.000000)">
            <g id="Group" transform="translate(454.000000, 645.000000)">
                <circle id="Oval" fill="#741816" cx="19.5" cy="19.5" r="19.5"></circle>
                <g id="noun-email-7009429" transform="translate(9.000000, 12.000000)" fill="#FFFFFF" fill-rule="nonzero">
                    <path d="M0.272727273,1.22743129 C0.366387618,0.980409602 0.508755563,0.753565005 0.695136341,0.563260621 C1.04635664,0.201844693 1.5230984,0 2.01950158,0 L19.2532257,0 C19.7496289,0 20.2263706,0.201847154 20.5775909,0.563260621 C20.7639765,0.75453449 20.9072796,0.981369244 21,1.22839093 L10.8443912,8.52191593 C10.7301247,8.58727739 10.5943074,8.58727739 10.4828606,8.5257609 C10.477241,8.52287729 2.29507333,2.67317521 0.272727273,1.22756072 L0.272727273,1.22743129 Z M21,2.95002554 L21,13.1265773 C21,13.6230313 20.8031256,14.0998219 20.450616,14.4510782 C20.099064,14.8032936 19.621872,15 19.125,15 L1.875,15 C1.378128,15 0.900936,14.8032912 0.549384,14.4510782 C0.196872,14.0998219 0,13.6230313 0,13.1265773 L0,2.94642857 L9.5052,9.56341736 C9.51738744,9.5718477 9.5295744,9.57934139 9.5417616,9.58683508 C10.1455056,9.95777877 10.9067616,9.95684355 11.5095696,9.58402489 C11.521757,9.5765312 11.5330073,9.56903751 11.5451952,9.56154382 L21,2.95002554 Z" id="Shape"></path>
                </g>
            </g>
        </g>
    </g>
</svg>