<?xml version="1.0" encoding="UTF-8"?>
<svg width="16px" height="17px" viewBox="0 0 16 17" version="1.1" xmlns="http://www.w3.org/2000/svg" xmlns:xlink="http://www.w3.org/1999/xlink">
    <title>Shape</title>
    <g id="Page-1" stroke="none" stroke-width="1" fill="none" fill-rule="evenodd">
        <g id="Desktop-HD-Copy-11" transform="translate(-909.000000, -5134.000000)" fill="#751816" fill-rule="nonzero">
            <g id="Group-33" transform="translate(906.000000, 5006.000000)">
                <path d="M18.7992095,133.646433 L18.7992095,133.646433 L18.7992095,133.42471 L18.7438735,133.42471 L18.6332016,133.313849 L18.6332016,133.313849 L11.4395257,128.879385 C11.3134922,128.766464 11.1228714,128.766464 10.9968379,128.879385 L3.80316206,133.313849 L3.80316206,133.313849 L3.69249012,133.42471 L3.63715415,133.42471 L3.63715415,133.646433 L3.58181818,133.646433 L3.58181818,142.51536 C3.61043834,143.36038 4.28765055,144.038753 5.1312253,144.067422 L17.3051383,144.067422 C18.1487131,144.038753 18.8259253,143.36038 18.8545455,142.51536 L18.8545455,133.646433 L18.7992095,133.646433 Z M11.2181818,129.710847 L17.6371542,133.646433 L11.2181818,138.136327 L4.79920949,133.646433 L11.2181818,129.710847 Z M17.96917,142.51536 C17.96917,142.882723 17.6718729,143.180529 17.3051383,143.180529 L5.1312253,143.180529 C4.76449076,143.180529 4.46719368,142.882723 4.46719368,142.51536 L4.46719368,134.422464 L10.9968379,138.967789 L11.2181818,139.078651 L11.4395257,138.967789 L17.96917,134.422464 L17.96917,142.51536 Z" id="Shape"></path>
            </g>
        </g>
    </g>
</svg>