<?xml version="1.0" encoding="UTF-8"?>
<svg width="40px" height="39px" viewBox="0 0 40 39" version="1.1" xmlns="http://www.w3.org/2000/svg" xmlns:xlink="http://www.w3.org/1999/xlink">
    <title>Group 2</title>
    <g id="Page-1" stroke="none" stroke-width="1" fill="none" fill-rule="evenodd">
        <g id="Artboard" transform="translate(-705.000000, -645.000000)">
            <g id="Group-2" transform="translate(705.031250, 645.000000)">
                <circle id="Oval-Copy-2" fill="#741816" cx="19.5" cy="19.5" r="19.5"></circle>
                <g id="Path-2" transform="translate(10.650979, 10.870431)" fill="#FFFFFF" fill-rule="nonzero">
                    <path d="M17.2856593,13.0468422 L13.6147822,11.149535 C13.0992096,10.8814372 12.4598995,11.0257975 12.1093101,11.4795014 L10.7688213,13.2118254 C9.4489554,12.5106467 8.45905596,11.8300908 7.30417328,10.6752081 C6.06679898,9.43783384 5.40686602,8.4273115 4.74693306,7.14869139 L6.45863418,5.80820257 C6.91233809,5.45761318 7.05669842,4.81830313 6.78860066,4.3027305 L4.8912934,0.652476324 C4.56132692,0.0131662705 3.73641072,-0.193062779 3.13834648,0.198772415 L0.807958216,1.76611319 C0.271762687,2.13732548 -0.0375808875,2.75601263 0.0036649224,3.39532268 C0.0449107323,4.05525564 0.127402352,4.90079475 0.292385592,5.47823609 C0.972941456,8.09734502 2.60215095,10.7989456 4.9119163,13.088088 C7.20105875,15.3772305 9.9026593,17.00644 12.5217682,17.7076187 C13.0992096,17.8519791 13.9447487,17.9344707 14.6253045,17.9963394 C15.2852375,18.0375852 15.9245476,17.7282416 16.2751369,17.1714232 L17.8012319,14.7997891 C18.1311984,14.181102 17.9043464,13.3768087 17.2856593,13.0468422 Z" id="Path"></path>
                </g>
            </g>
        </g>
    </g>
</svg>