<?xml version="1.0" encoding="UTF-8"?>
<svg width="16px" height="15px" viewBox="0 0 16 15" version="1.1" xmlns="http://www.w3.org/2000/svg" xmlns:xlink="http://www.w3.org/1999/xlink">
    <title>phone</title>
    <g id="Page-1" stroke="none" stroke-width="1" fill="none" fill-rule="evenodd">
        <g id="Desktop-HD-Copy-11" transform="translate(-909.000000, -5102.000000)" fill="#751816" fill-rule="nonzero">
            <g id="Group-33" transform="translate(906.000000, 5006.000000)">
                <g id="phone" transform="translate(3.000000, 96.000000)">
                    <path d="M6.00146288,4.174084 C6.22029309,3.86409014 6.22470499,3.45993148 6.01293381,3.14577104 L3.89345731,0 L1.37073319,0.79415094 C0.346290128,1.11664455 -0.236080603,2.15412401 0.0912823383,3.12577143 C0.66129975,4.81823791 1.97075151,7.51068459 4.95054842,10.3239622 C7.92946295,13.1380732 10.7804324,14.3747153 12.5734283,14.9138713 C13.6022833,15.2230319 14.7008463,14.6722094 15.0423273,13.7047286 L15.8823529,11.3231091 L12.5522512,9.32148207 C12.2187116,9.12065271 11.7916397,9.1248193 11.462512,9.33231519 L10.4027738,9.99980197 C10.078058,10.2039646 9.6606923,10.215631 9.32979984,10.0206349 C8.78978334,9.70480781 7.92769819,9.139819 7.06649541,8.32566845 C6.20441025,7.51235123 5.60615668,6.69820068 5.2717347,6.1890441 C5.06614019,5.87655029 5.07761113,5.48239143 5.2937942,5.17573083 L6.00146288,4.174084 Z" id="Path"></path>
                </g>
            </g>
        </g>
    </g>
</svg>