<?xml version="1.0" encoding="UTF-8"?>
<svg width="13px" height="19px" viewBox="0 0 13 19" version="1.1" xmlns="http://www.w3.org/2000/svg" xmlns:xlink="http://www.w3.org/1999/xlink">
    <title>Group 40</title>
    <g id="Page-1" stroke="none" stroke-width="1" fill="none" fill-rule="evenodd">
        <g id="Desktop-HD-Copy-11" transform="translate(-885.000000, -5098.000000)" stroke="#751816">
            <g id="Group-40" transform="translate(885.775726, 5099.372032)">
                <path d="M5.48476454,0 C7.00831025,0 8.37950139,0.631163708 9.38504155,1.64102564 L9.38504155,1.64102564 C10.3905817,2.68244576 11,4.1025641 11,5.68047337 C11,6.34319527 10.8781163,6.94280079 10.6952909,7.54240631 C10.5124654,8.11045365 10.2382271,8.6469428 9.87257618,9.12031558 L9.84210526,9.18343195 L5.78947368,15.5266272 L5.48476454,16 L5.1800554,15.5266272 L1.12742382,9.18343195 L1.09695291,9.12031558 C0.761772853,8.6469428 0.487534626,8.11045365 0.274238227,7.54240631 C0.0914127424,6.94280079 0,6.34319527 0,5.68047337 C0,4.1025641 0.609418283,2.68244576 1.61495845,1.64102564 L1.61495845,1.64102564 C2.5900277,0.631163708 3.96121884,0 5.48476454,0 Z" id="Path"></path>
                <circle id="Oval" cx="5.52427441" cy="5.12796834" r="2"></circle>
            </g>
        </g>
    </g>
</svg>