<?xml version="1.0" encoding="UTF-8"?>
<svg width="29px" height="29px" viewBox="0 0 29 29" version="1.1" xmlns="http://www.w3.org/2000/svg" xmlns:xlink="http://www.w3.org/1999/xlink">
    <title>noun-right-arrow-3465428</title>
    <g id="Page-1" stroke="none" stroke-width="1" fill="none" fill-rule="evenodd">
        <g id="Desktop-HD-Copy-3" transform="translate(-671.000000, -2580.000000)" fill="#0B2148" fill-rule="nonzero">
            <g id="noun-right-arrow-3465428" transform="translate(685.500000, 2594.500000) rotate(-40.000000) translate(-685.500000, -2594.500000) translate(674.000000, 2586.000000)">
                <path d="M0.862424194,9.34428175 L20.0553862,9.34428175 L13.7021408,15.5596764 C13.3652262,15.8892966 13.3652262,16.4234697 13.7021408,16.7527886 C13.8702977,16.9178926 14.091098,17 14.3118983,17 C14.5326986,17 14.753499,16.9175912 14.9216559,16.7527886 L22.7473141,9.09655801 C23.0842286,8.76693777 23.0842286,8.23276463 22.7473141,7.90344576 L14.922426,0.24721518 C14.5861121,-0.08240506 14.0392093,-0.08240506 13.7029109,0.24721518 C13.3659964,0.57683542 13.3659964,1.11100856 13.7029109,1.44032744 L20.0561563,7.65602339 L0.862424194,7.65602339 C0.386231119,7.65602339 3.42316587e-13,8.0342014 3.42316587e-13,8.49977586 C3.42316587e-13,8.96565922 0.385946186,9.34382969 0.862424194,9.34382969 L0.862424194,9.34428175 Z" id="Path"></path>
            </g>
        </g>
    </g>
</svg>