<?xml version="1.0" encoding="UTF-8"?>
<svg width="24px" height="21px" viewBox="0 0 24 21" version="1.1" xmlns="http://www.w3.org/2000/svg" xmlns:xlink="http://www.w3.org/1999/xlink">
    <title>Group 4</title>
    <g id="Page-1" stroke="none" stroke-width="1" fill="none" fill-rule="evenodd">
        <g id="Artboard" transform="translate(-1078.000000, -432.000000)" fill="#8B131C" fill-rule="nonzero">
            <g id="Group-4" transform="translate(1078.000000, 432.000000)">
                <g id="Group">
                    <path d="M12.2037534,10.0575107 C12.075067,9.96717022 11.924933,9.98975534 11.8176944,10.0800958 C10.7453083,10.9157451 9.43699732,11.3900326 8,11.3900326 C6.56300268,11.3900326 5.25469169,10.89316 4.18230563,10.0800958 C4.07506702,9.98975534 3.90348525,9.98975534 3.79624665,10.0575107 C1.26541555,11.7739796 0,15.1391621 0,19.0012171 C0,21.666261 16,21.666261 16,19.0012171 C16,15.1391621 14.7345845,11.7739796 12.2037534,10.0575107 Z" id="Path"></path>
                    <circle id="Oval" cx="8" cy="5" r="5"></circle>
                </g>
                <g id="noun-user-1994976-copy-3" opacity="0.419340588" transform="translate(11.000000, 0.000000)">
                    <g id="Group">
                        <path d="M9.9155496,8.14179437 C9.81099196,8.06866161 9.68900804,8.0869448 9.60187668,8.16007756 C8.730563,8.8365556 7.66756032,9.22050259 6.5,9.22050259 C5.33243968,9.22050259 4.269437,8.81827241 3.39812332,8.16007756 C3.31099196,8.0869448 3.17158177,8.0869448 3.0844504,8.14179437 C1.02815013,9.53131682 0,12.2555122 0,15.3819377 C0,17.5393541 13,17.5393541 13,15.3819377 C13,12.2555122 11.9718499,9.53131682 9.9155496,8.14179437 Z" id="Path"></path>
                        <ellipse id="Oval" cx="6.5" cy="4.04761905" rx="4.0625" ry="4.04761905"></ellipse>
                    </g>
                </g>
            </g>
        </g>
    </g>
</svg>