<?xml version="1.0" encoding="UTF-8"?>
<svg width="21px" height="21px" viewBox="0 0 21 21" version="1.1" xmlns="http://www.w3.org/2000/svg" xmlns:xlink="http://www.w3.org/1999/xlink">
    <title>noun-clock-7016980</title>
    <g id="Page-1" stroke="none" stroke-width="1" fill="none" fill-rule="evenodd">
        <g id="Artboard" transform="translate(-1078.000000, -390.000000)" fill="#8B131C" fill-rule="nonzero">
            <g id="noun-clock-7016980" transform="translate(1078.000000, 390.000000)">
                <path d="M10.5,0 C4.71,0 0,4.71 0,10.5 C0,16.29 4.71,21 10.5,21 C16.29,21 21,16.29 21,10.5 C21,4.71 16.29,0 10.5,0 Z M16.3549383,12.7555556 L9.70061728,12.7555556 C9.17776257,12.7555556 8.75,12.327793 8.75,11.8049383 L8.75,5.15061728 C8.75,4.62776257 9.17776257,4.2 9.70061728,4.2 C10.223472,4.2 10.6512346,4.62776257 10.6512346,5.15061728 L10.6512346,10.854321 L16.3549383,10.854321 C16.877793,10.854321 17.3055556,11.2820836 17.3055556,11.8049383 C17.3055556,12.327793 16.877793,12.7555556 16.3549383,12.7555556 Z" id="Shape"></path>
            </g>
        </g>
    </g>
</svg>