<?xml version="1.0" encoding="UTF-8"?>
<svg width="86px" height="61px" viewBox="0 0 86 61" version="1.1" xmlns="http://www.w3.org/2000/svg" xmlns:xlink="http://www.w3.org/1999/xlink">
    <title>Shape 2</title>
    <g id="Page-1" stroke="none" stroke-width="1" fill="none" fill-rule="evenodd">
        <g id="Desktop-HD-Copy-3" transform="translate(-205.000000, -732.000000)" fill="#FFFFFF" fill-rule="nonzero">
            <g id="Rectangle-2" transform="translate(79.000000, 701.000000)">
                <g id="Shape-2" transform="translate(126.640240, 31.000000)">
                    <path d="M49.898056,42.7044669 L72.1581611,31.6354819 L72.1581611,45.2956954 C72.1581611,45.518283 72.0745429,45.6573821 71.878437,45.7613402 L47.3639679,58.7607375 C44.6978722,60.1741134 40.5125656,60.4349013 38.4052124,59.3173705 L12.8884411,45.7862044 C12.6916618,45.681758 12.6074562,45.5424758 12.6074562,45.3202468 L12.6074562,31.6584196 L36.1385994,43.3594885 C37.6689453,44.1208029 39.6913757,44.4924574 41.83675,44.4924574 C44.5804978,44.4924574 47.5254707,43.8837576 49.898056,42.7044669 Z M84.2619515,19.4302054 L46.5055237,0.65567685 C44.543869,-0.31947235 40.1156388,-0.29007055 36.8963661,1.31070045 L1.7750635,18.7751379 C0.6474361,19.3356733 0.1590762,19.8629065 0,20.1216307 C0.0856428,20.1950178 0.2312083,20.299243 0.4575682,20.4118185 L38.2140417,39.1862555 C40.1743917,40.1614027 44.6030722,40.1320487 47.8227949,38.5312338 L77.5513105,23.7486906 L77.5513105,35.8491583 C77.5513105,36.9654303 78.456706,37.8708258 79.572978,37.8708258 C80.6893339,37.8708258 81.5946913,36.9654303 81.5946913,35.8491583 L81.5946913,21.7380667 L82.9446821,21.0667944 C84.0720854,20.506259 84.5604887,19.9790258 84.7195158,19.7203016 C84.6341057,19.646781 84.4885369,19.5426894 84.2619515,19.4302054 Z" id="Shape"></path>
                </g>
            </g>
        </g>
    </g>
</svg>